<svg id="svg" version="1.1" xmlns="http://www.w3.org/2000/svg" xmlns:xlink="http://www.w3.org/1999/xlink" width="400" height="369.5" viewBox="0, 0, 400,369.5"><g id="svgg"><path id="path0" d="M304.519 17.112 C 303.441 18.578,301.303 21.525,299.766 23.660 C 298.229 25.795,292.566 33.614,287.182 41.035 C 232.552 116.332,234.750 113.289,234.750 113.607 C 234.750 113.708,235.349 114.143,236.080 114.575 C 258.744 127.947,272.053 163.666,264.104 189.785 C 261.155 199.476,257.514 207.199,253.187 212.939 C 252.804 213.447,251.799 214.778,250.953 215.896 C 235.936 235.746,207.726 245.935,182.255 240.709 C 155.746 235.271,134.379 214.651,128.504 188.837 L 128.277 187.840 126.893 188.547 C 126.131 188.936,123.429 190.099,120.887 191.131 C 118.346 192.162,115.933 193.158,115.527 193.343 C 115.120 193.528,112.126 194.776,108.872 196.116 C 105.619 197.456,101.710 199.071,100.185 199.705 C 98.660 200.338,96.331 201.303,95.009 201.848 C 91.538 203.281,87.749 204.857,82.070 207.229 C 79.325 208.376,74.501 210.370,71.349 211.659 C 60.044 216.283,58.215 217.037,57.486 217.375 C 57.079 217.564,55.083 218.399,53.050 219.231 C 40.365 224.424,34.389 226.899,22.978 231.688 C 17.207 234.110,17.486 233.273,20.156 240.131 C 41.629 295.286,87.742 337.253,144.362 353.171 C 146.192 353.685,148.604 354.358,149.723 354.666 C 169.729 360.176,199.262 361.774,222.240 358.590 C 237.964 356.411,253.992 352.126,267.837 346.399 C 269.871 345.559,272.200 344.602,273.013 344.274 C 282.125 340.596,298.937 330.848,309.427 323.159 C 381.228 270.531,407.349 174.008,371.619 93.346 C 366.610 82.039,359.685 69.955,351.914 58.965 C 341.094 43.661,322.817 25.606,307.675 15.264 L 306.478 14.446 304.519 17.112 M312.416 40.598 C 349.888 73.568,370.224 118.863,370.206 169.316 C 370.162 295.950,240.047 379.741,124.214 327.729 C 86.465 310.779,52.827 276.081,37.904 238.699 C 36.654 235.569,33.691 237.275,56.007 228.282 C 62.717 225.578,73.031 221.427,78.928 219.057 C 84.824 216.687,90.148 214.530,90.758 214.264 C 97.299 211.405,117.311 203.679,117.530 203.928 C 117.686 204.106,118.208 205.250,118.689 206.470 C 125.620 224.053,144.183 242.705,161.922 249.910 C 163.041 250.364,164.455 250.942,165.065 251.195 C 184.775 259.365,208.138 259.107,229.184 250.487 C 251.018 241.545,269.685 221.597,276.776 199.630 C 278.713 193.632,279.148 191.789,280.619 183.364 C 281.660 177.400,281.336 162.431,280.051 157.116 C 279.781 155.998,279.463 154.413,279.345 153.593 C 277.613 141.571,268.180 124.186,257.316 112.991 C 255.173 110.783,253.473 108.794,253.537 108.571 C 253.602 108.349,255.006 106.329,256.658 104.083 C 258.309 101.838,260.820 98.420,262.237 96.488 C 265.208 92.439,267.712 89.033,270.798 84.843 C 271.996 83.216,273.575 81.054,274.307 80.037 C 275.038 79.020,276.558 76.941,277.685 75.416 C 278.811 73.891,285.446 64.824,292.428 55.268 C 307.794 34.238,306.513 35.883,307.241 36.258 C 307.563 36.424,309.892 38.377,312.416 40.598 M304.654 58.649 C 301.871 61.686,301.671 61.021,307.095 66.763 C 316.842 77.081,324.838 88.340,331.095 100.555 C 333.344 104.944,334.414 107.216,336.667 112.384 C 337.779 114.934,340.812 123.493,341.580 126.248 C 343.789 134.168,345.475 141.985,346.429 148.723 C 346.972 152.559,346.862 152.454,349.808 151.946 C 354.706 151.102,354.284 151.375,354.028 149.221 C 352.998 140.557,351.001 131.390,348.259 122.736 C 346.451 117.031,345.491 114.349,343.098 108.318 C 337.106 93.217,325.634 75.632,312.726 61.766 C 306.755 55.351,307.435 55.614,304.654 58.649 M287.361 77.818 C 284.744 80.744,284.740 80.381,287.431 83.234 C 301.547 98.202,311.465 115.051,316.992 133.457 C 317.511 135.185,318.090 137.098,318.279 137.708 C 319.022 140.103,320.160 145.468,320.883 149.979 C 321.300 152.583,321.730 155.260,321.838 155.928 C 322.058 157.287,321.687 157.267,326.987 156.199 L 329.205 155.752 329.095 154.124 C 328.848 150.457,326.525 139.297,324.639 132.717 C 318.886 112.640,304.719 88.729,291.401 76.617 C 289.699 75.069,289.864 75.020,287.361 77.818 M273.762 92.884 C 273.191 93.544,272.145 94.695,271.437 95.441 L 270.150 96.797 273.687 100.715 C 288.130 116.710,297.299 136.634,299.474 156.747 C 299.705 158.882,300.018 160.762,300.170 160.926 C 300.811 161.615,307.860 159.722,307.405 158.983 C 307.337 158.871,307.003 156.631,306.665 154.003 C 305.807 147.344,303.512 137.709,301.684 133.087 C 301.322 132.172,300.643 130.425,300.175 129.205 C 295.539 117.110,287.633 104.580,278.790 95.313 C 274.830 91.163,275.124 91.305,273.762 92.884 M351.473 170.448 C 347.502 170.737,348.034 169.624,347.509 178.743 C 347.264 183.013,347.011 186.591,346.947 186.695 C 346.883 186.799,346.558 188.879,346.225 191.316 C 345.119 199.399,342.836 209.292,340.436 216.399 C 339.827 218.200,339.380 219.718,339.443 219.770 C 340.323 220.515,346.170 222.179,346.434 221.760 C 347.480 220.100,350.972 207.474,352.452 200.000 C 354.396 190.174,356.052 170.833,354.991 170.340 C 354.838 170.269,353.255 170.318,351.473 170.448 M325.693 172.172 C 322.612 172.352,322.852 171.863,322.371 178.928 C 321.701 188.781,320.280 196.943,317.641 206.100 C 316.938 208.540,316.341 210.777,316.315 211.070 C 316.275 211.502,321.583 213.932,322.778 214.029 C 323.421 214.082,326.450 203.195,327.761 196.118 C 329.083 188.978,330.237 178.129,330.061 174.492 C 329.929 171.758,330.210 171.908,325.693 172.172 M303.992 173.730 C 300.276 174.015,300.509 173.763,300.146 177.904 C 299.435 186.020,297.782 194.462,295.589 201.178 C 295.103 202.665,294.757 203.934,294.819 203.997 C 295.092 204.276,300.797 206.282,301.321 206.283 C 301.883 206.285,302.038 205.870,304.099 198.891 C 306.642 190.277,308.788 173.102,307.279 173.440 C 307.139 173.471,305.660 173.602,303.992 173.730 M287.431 220.222 C 285.511 223.715,281.895 229.184,278.926 233.087 C 276.292 236.548,275.337 237.657,271.383 241.848 L 269.013 244.359 269.706 245.192 C 271.231 247.028,273.744 249.538,274.055 249.538 C 275.529 249.538,292.052 228.988,292.052 227.154 C 292.052 227.070,292.600 226.125,293.269 225.053 C 295.947 220.768,295.951 220.790,292.164 219.040 C 288.640 217.413,289.028 217.316,287.431 220.222 M104.991 224.253 C 103.466 225.132,102.069 225.908,101.888 225.975 C 101.439 226.142,102.001 227.141,105.578 232.532 C 113.454 244.406,125.792 256.667,136.656 263.416 C 140.172 265.601,142.726 267.112,145.149 268.442 L 147.858 269.929 149.499 266.583 L 151.139 263.238 149.925 262.488 C 149.257 262.075,148.613 261.738,148.492 261.738 C 148.011 261.738,141.259 257.505,137.793 255.030 C 126.984 247.313,117.337 237.253,110.794 226.877 C 107.854 222.213,108.231 222.384,104.991 224.253 M308.355 229.482 C 304.029 238.423,295.515 250.386,287.822 258.333 C 284.566 261.696,284.582 261.418,287.457 264.510 L 289.863 267.098 293.083 263.759 C 300.608 255.957,308.321 245.292,314.036 234.787 C 315.655 231.811,316.018 230.868,315.643 230.618 C 314.758 230.029,309.910 227.726,309.554 227.726 C 309.362 227.726,308.822 228.517,308.355 229.482 M82.255 236.617 C 80.832 237.413,79.509 238.121,79.315 238.189 C 77.319 238.889,92.928 259.471,102.218 268.387 C 112.406 278.166,123.112 285.912,134.091 291.449 C 136.768 292.799,136.801 292.782,138.358 289.368 C 140.034 285.692,140.034 286.086,138.355 285.221 C 117.156 274.300,99.538 258.013,87.759 238.447 C 85.528 234.742,85.575 234.758,82.255 236.617 M329.777 241.312 C 324.284 252.025,314.984 264.706,305.037 275.046 C 300.596 279.662,300.694 279.092,303.813 282.187 L 306.333 284.687 309.637 281.253 C 311.454 279.364,313.770 276.821,314.783 275.601 C 315.796 274.381,317.420 272.493,318.391 271.407 C 323.922 265.220,336.422 246.329,337.679 242.256 C 337.898 241.547,332.828 238.447,331.449 238.447 C 331.338 238.447,330.586 239.737,329.777 241.312 M62.939 247.163 C 59.358 249.134,59.506 248.665,61.445 251.919 C 73.291 271.792,89.855 289.314,108.872 302.092 C 115.213 306.352,125.682 312.384,126.735 312.384 C 127.102 312.384,130.303 306.148,130.059 305.909 C 129.996 305.847,128.863 305.230,127.542 304.539 C 102.557 291.474,82.156 272.053,67.468 247.350 C 66.136 245.111,66.631 245.132,62.939 247.163 M246.377 260.968 C 244.174 263.100,228.491 269.162,220.425 270.999 C 216.088 271.987,216.266 271.702,217.147 276.252 C 217.779 279.520,217.495 279.415,222.470 278.210 C 231.265 276.079,238.436 273.450,246.488 269.403 C 251.695 266.786,251.556 267.085,249.261 263.437 C 247.532 260.689,247.073 260.295,246.377 260.968 M162.983 269.409 C 162.103 271.649,161.183 274.449,161.183 274.888 C 161.183 275.305,165.728 276.918,169.871 277.973 C 178.538 280.178,192.579 281.732,198.681 281.160 L 201.479 280.898 201.479 278.948 C 201.479 277.875,201.376 276.248,201.250 275.332 L 201.022 273.667 192.840 273.467 C 182.930 273.224,172.957 271.573,165.665 268.969 C 163.534 268.209,163.449 268.222,162.983 269.409 M256.747 282.662 C 251.902 285.438,244.318 288.936,239.187 290.760 C 233.395 292.819,228.093 294.402,224.085 295.267 L 220.999 295.933 221.220 297.597 C 221.721 301.359,222.278 303.142,222.954 303.142 C 228.820 303.142,257.081 292.260,263.158 287.662 L 264.023 287.007 262.104 283.984 C 259.843 280.424,260.408 280.563,256.747 282.662 M154.516 293.380 C 152.154 299.593,152.107 299.274,155.529 300.258 C 169.600 304.307,178.546 305.687,192.645 305.987 C 204.321 306.235,203.359 306.589,203.071 302.145 L 202.854 298.795 193.941 298.601 C 180.634 298.312,169.178 296.600,158.780 293.347 C 155.113 292.200,154.964 292.201,154.516 293.380 M271.516 301.259 C 270.935 301.813,260.722 306.941,256.562 308.767 C 248.939 312.114,237.136 315.921,228.651 317.769 C 224.873 318.592,225.035 318.349,225.737 322.138 C 226.462 326.042,226.389 326.003,230.971 324.968 C 244.459 321.920,257.377 317.174,269.825 310.692 C 277.365 306.766,276.829 307.528,274.566 303.954 C 272.688 300.989,272.227 300.581,271.516 301.259 M147.505 313.219 C 147.505 313.315,146.942 314.906,146.255 316.755 L 145.005 320.116 148.935 321.397 C 156.175 323.756,161.364 325.037,169.131 326.384 C 179.116 328.114,181.955 328.368,193.496 328.559 L 204.922 328.748 204.682 326.204 C 204.550 324.805,204.440 323.119,204.439 322.458 L 204.436 321.257 196.396 321.251 C 180.274 321.239,158.745 317.697,148.152 313.312 C 147.796 313.165,147.505 313.123,147.505 313.219 " stroke="none" fill="#ba9204" fill-rule="evenodd"></path><path id="path1" d="M0.000 184.843 L 0.000 369.686 200.000 369.686 L 400.000 369.686 400.000 184.843 L 400.000 0.000 200.000 0.000 L 0.000 0.000 0.000 184.843 M312.418 18.717 C 380.413 69.265,405.555 160.314,373.656 240.481 C 355.668 285.687,315.478 327.136,273.013 344.274 C 272.200 344.602,269.871 345.559,267.837 346.399 C 231.923 361.254,185.454 364.506,149.723 354.666 C 148.604 354.358,146.192 353.685,144.362 353.171 C 87.742 337.253,41.629 295.286,20.156 240.131 C 17.486 233.273,17.207 234.110,22.978 231.688 C 34.389 226.899,40.365 224.424,53.050 219.231 C 55.083 218.399,57.079 217.564,57.486 217.375 C 58.215 217.037,60.044 216.283,71.349 211.659 C 74.501 210.370,79.325 208.376,82.070 207.229 C 87.749 204.857,91.538 203.281,95.009 201.848 C 96.331 201.303,98.660 200.338,100.185 199.705 C 101.710 199.071,105.619 197.456,108.872 196.116 C 112.126 194.776,115.120 193.528,115.527 193.343 C 115.933 193.158,118.346 192.162,120.887 191.131 C 123.429 190.099,126.131 188.936,126.893 188.547 L 128.277 187.840 128.504 188.837 C 134.379 214.651,155.746 235.271,182.255 240.709 C 207.726 245.935,235.936 235.746,250.953 215.896 C 251.799 214.778,252.804 213.447,253.187 212.939 C 257.514 207.199,261.155 199.476,264.104 189.785 C 272.053 163.666,258.744 127.947,236.080 114.575 C 235.349 114.143,234.750 113.708,234.750 113.607 C 234.750 113.311,235.712 111.977,267.602 68.022 C 272.987 60.601,281.797 48.457,287.182 41.035 C 292.566 33.614,298.229 25.795,299.766 23.660 C 301.303 21.525,303.441 18.578,304.519 17.112 L 306.478 14.446 307.675 15.264 C 308.334 15.713,310.468 17.267,312.418 18.717 M305.889 36.924 C 305.468 37.457,299.411 45.712,292.428 55.268 C 285.446 64.824,278.811 73.891,277.685 75.416 C 276.558 76.941,275.038 79.020,274.307 80.037 C 273.575 81.054,271.996 83.216,270.798 84.843 C 267.712 89.033,265.208 92.439,262.237 96.488 C 260.820 98.420,258.309 101.838,256.658 104.083 C 255.006 106.329,253.602 108.349,253.537 108.571 C 253.473 108.794,255.173 110.783,257.316 112.991 C 268.180 124.186,277.613 141.571,279.345 153.593 C 279.463 154.413,279.781 155.998,280.051 157.116 C 281.336 162.431,281.660 177.400,280.619 183.364 C 279.148 191.789,278.713 193.632,276.776 199.630 C 271.643 215.531,259.981 231.069,245.292 241.579 C 222.376 257.977,190.610 261.784,165.065 251.195 C 164.455 250.942,163.041 250.364,161.922 249.910 C 144.183 242.705,125.620 224.053,118.689 206.470 C 118.208 205.250,117.686 204.106,117.530 203.928 C 117.311 203.679,97.299 211.405,90.758 214.264 C 90.148 214.530,84.824 216.687,78.928 219.057 C 66.199 224.173,45.154 232.652,40.501 234.539 C 38.683 235.277,37.128 235.947,37.046 236.029 C 36.575 236.500,42.429 249.017,46.298 255.810 C 105.157 359.174,246.601 373.836,326.382 284.843 C 367.178 239.337,380.893 175.281,362.358 116.821 C 353.180 87.872,335.531 60.936,312.416 40.598 C 306.794 35.651,306.864 35.691,305.889 36.924 M312.726 61.766 C 324.024 73.903,332.100 85.549,339.112 99.815 C 342.065 105.824,342.673 107.189,344.625 112.200 C 349.195 123.926,352.628 137.443,354.028 149.221 C 354.284 151.375,354.706 151.102,349.808 151.946 C 346.862 152.454,346.972 152.559,346.429 148.723 C 345.475 141.985,343.789 134.168,341.580 126.248 C 340.812 123.493,337.779 114.934,336.667 112.384 C 331.678 100.941,327.548 93.376,321.230 84.104 C 317.609 78.789,312.283 72.255,307.095 66.763 C 301.671 61.021,301.871 61.686,304.654 58.649 C 307.435 55.614,306.755 55.351,312.726 61.766 M291.401 76.617 C 304.719 88.729,318.886 112.640,324.639 132.717 C 326.525 139.297,328.848 150.457,329.095 154.124 L 329.205 155.752 326.987 156.199 C 321.687 157.267,322.058 157.287,321.838 155.928 C 321.730 155.260,321.300 152.583,320.883 149.979 C 320.160 145.468,319.022 140.103,318.279 137.708 C 318.090 137.098,317.511 135.185,316.992 133.457 C 311.465 115.051,301.547 98.202,287.431 83.234 C 284.740 80.381,284.744 80.744,287.361 77.818 C 289.864 75.020,289.699 75.069,291.401 76.617 M278.790 95.313 C 287.633 104.580,295.539 117.110,300.175 129.205 C 300.643 130.425,301.322 132.172,301.684 133.087 C 303.512 137.709,305.807 147.344,306.665 154.003 C 307.003 156.631,307.337 158.871,307.405 158.983 C 307.860 159.722,300.811 161.615,300.170 160.926 C 300.018 160.762,299.705 158.882,299.474 156.747 C 297.299 136.634,288.130 116.710,273.687 100.715 L 270.150 96.797 271.437 95.441 C 272.145 94.695,273.191 93.544,273.762 92.884 C 275.124 91.305,274.830 91.163,278.790 95.313 M355.268 173.754 C 355.268 186.626,352.191 204.568,347.534 218.854 C 346.328 222.555,346.584 222.434,342.836 221.065 C 341.032 220.406,339.505 219.823,339.443 219.770 C 339.380 219.718,339.827 218.200,340.436 216.399 C 342.836 209.292,345.119 199.399,346.225 191.316 C 346.558 188.879,346.883 186.799,346.947 186.695 C 347.011 186.591,347.264 183.013,347.509 178.743 C 348.034 169.624,347.502 170.737,351.473 170.448 C 355.556 170.150,355.268 169.900,355.268 173.754 M330.061 174.492 C 330.237 178.129,329.083 188.978,327.761 196.118 C 326.450 203.195,323.421 214.082,322.778 214.029 C 321.583 213.932,316.275 211.502,316.315 211.070 C 316.341 210.777,316.938 208.540,317.641 206.100 C 320.280 196.943,321.701 188.781,322.371 178.928 C 322.852 171.863,322.612 172.352,325.693 172.172 C 330.210 171.908,329.929 171.758,330.061 174.492 M307.767 173.758 C 308.573 175.062,306.069 192.217,304.099 198.891 C 302.038 205.870,301.883 206.285,301.321 206.283 C 300.797 206.282,295.092 204.276,294.819 203.997 C 294.757 203.934,295.103 202.665,295.589 201.178 C 297.782 194.462,299.435 186.020,300.146 177.904 C 300.509 173.763,300.276 174.015,303.992 173.730 C 305.660 173.602,307.139 173.471,307.279 173.440 C 307.420 173.408,307.639 173.552,307.767 173.758 M292.164 219.040 C 295.951 220.790,295.947 220.768,293.269 225.053 C 292.600 226.125,292.052 227.070,292.052 227.154 C 292.052 228.988,275.529 249.538,274.055 249.538 C 273.744 249.538,271.231 247.028,269.706 245.192 L 269.013 244.359 271.383 241.848 C 275.337 237.657,276.292 236.548,278.926 233.087 C 281.895 229.184,285.511 223.715,287.431 220.222 C 289.028 217.316,288.640 217.413,292.164 219.040 M110.794 226.877 C 117.337 237.253,126.984 247.313,137.793 255.030 C 141.259 257.505,148.011 261.738,148.492 261.738 C 148.613 261.738,149.257 262.075,149.925 262.488 L 151.139 263.238 149.499 266.583 L 147.858 269.929 145.149 268.442 C 142.726 267.112,140.172 265.601,136.656 263.416 C 125.792 256.667,113.454 244.406,105.578 232.532 C 102.001 227.141,101.439 226.142,101.888 225.975 C 102.069 225.908,103.466 225.132,104.991 224.253 C 108.231 222.384,107.854 222.213,110.794 226.877 M312.531 229.011 C 313.975 229.717,315.376 230.440,315.643 230.618 C 316.018 230.868,315.655 231.811,314.036 234.787 C 308.321 245.292,300.608 255.957,293.083 263.759 L 289.863 267.098 287.457 264.510 C 284.582 261.418,284.566 261.696,287.822 258.333 C 295.515 250.386,304.029 238.423,308.355 229.482 C 309.370 227.385,309.237 227.400,312.531 229.011 M87.759 238.447 C 99.538 258.013,117.156 274.300,138.355 285.221 C 140.034 286.086,140.034 285.692,138.358 289.368 C 136.801 292.782,136.768 292.799,134.091 291.449 C 119.578 284.130,104.608 272.208,93.304 258.965 C 87.540 252.213,78.330 238.534,79.315 238.189 C 79.509 238.121,80.832 237.413,82.255 236.617 C 85.575 234.758,85.528 234.742,87.759 238.447 M334.791 239.946 C 338.545 241.737,338.572 241.080,334.453 248.244 C 329.607 256.674,322.848 266.422,318.391 271.407 C 317.420 272.493,315.796 274.381,314.783 275.601 C 313.770 276.821,311.454 279.364,309.637 281.253 L 306.333 284.687 303.813 282.187 C 300.694 279.092,300.596 279.662,305.037 275.046 C 314.984 264.706,324.284 252.025,329.777 241.312 C 330.586 239.737,331.338 238.447,331.449 238.447 C 331.561 238.447,333.065 239.122,334.791 239.946 M67.468 247.350 C 82.156 272.053,102.557 291.474,127.542 304.539 C 128.863 305.230,129.996 305.847,130.059 305.909 C 130.303 306.148,127.102 312.384,126.735 312.384 C 125.682 312.384,115.213 306.352,108.872 302.092 C 89.855 289.314,73.291 271.792,61.445 251.919 C 59.506 248.665,59.358 249.134,62.939 247.163 C 66.631 245.132,66.136 245.111,67.468 247.350 M249.261 263.437 C 251.556 267.085,251.695 266.786,246.488 269.403 C 238.436 273.450,231.265 276.079,222.470 278.210 C 217.495 279.415,217.779 279.520,217.147 276.252 C 216.266 271.702,216.088 271.987,220.425 270.999 C 228.491 269.162,244.174 263.100,246.377 260.968 C 247.073 260.295,247.532 260.689,249.261 263.437 M165.665 268.969 C 172.957 271.573,182.930 273.224,192.840 273.467 L 201.022 273.667 201.250 275.332 C 201.376 276.248,201.479 277.875,201.479 278.948 L 201.479 280.898 198.681 281.160 C 190.731 281.905,175.454 279.793,164.787 276.475 C 160.825 275.242,160.872 275.309,161.883 272.424 C 163.492 267.832,163.208 268.092,165.665 268.969 M262.104 283.984 L 264.023 287.007 263.158 287.662 C 257.081 292.260,228.820 303.142,222.954 303.142 C 222.278 303.142,221.721 301.359,221.220 297.597 L 220.999 295.933 224.085 295.267 C 228.093 294.402,233.395 292.819,239.187 290.760 C 244.318 288.936,251.902 285.438,256.747 282.662 C 260.408 280.563,259.843 280.424,262.104 283.984 M158.780 293.347 C 169.178 296.600,180.634 298.312,193.941 298.601 L 202.854 298.795 203.071 302.145 C 203.359 306.589,204.321 306.235,192.645 305.987 C 178.546 305.687,169.600 304.307,155.529 300.258 C 152.307 299.331,152.372 299.437,153.332 296.685 C 155.082 291.673,154.523 292.015,158.780 293.347 M274.566 303.954 C 276.829 307.528,277.365 306.766,269.825 310.692 C 260.580 315.506,250.916 319.438,241.774 322.106 C 233.659 324.474,227.632 325.878,226.858 325.581 C 226.274 325.357,224.959 319.046,225.414 318.653 C 225.568 318.521,227.024 318.123,228.651 317.769 C 237.136 315.921,248.939 312.114,256.562 308.767 C 260.722 306.941,270.935 301.813,271.516 301.259 C 272.227 300.581,272.688 300.989,274.566 303.954 M151.017 314.301 C 164.589 318.710,181.108 321.240,196.396 321.251 L 204.436 321.257 204.439 322.458 C 204.440 323.119,204.550 324.805,204.682 326.204 L 204.922 328.748 193.496 328.559 C 181.955 328.368,179.116 328.114,169.131 326.384 C 161.364 325.037,156.175 323.756,148.935 321.397 L 145.005 320.116 146.255 316.755 C 146.942 314.906,147.505 313.315,147.505 313.219 C 147.505 313.123,147.796 313.165,148.152 313.312 C 148.507 313.460,149.797 313.904,151.017 314.301 " stroke="none" fill="#14240c" fill-rule="evenodd"></path></g></svg>